<svg width="93" height="93" viewBox="0 0 93 93" fill="none" xmlns="http://www.w3.org/2000/svg">
<path d="M62.1169 45.8175H65.3604C65.1914 41.1256 63.3106 36.8726 60.3158 33.6544L58.0266 35.9434C57.8931 36.077 57.7181 36.1438 57.5431 36.1438C57.3682 36.1438 57.1932 36.077 57.0597 35.9434C56.7925 35.6763 56.7925 35.2436 57.0597 34.9765L59.3489 32.6874C56.1307 29.6926 51.8779 27.8118 47.1863 27.6426V30.8869C47.1863 31.2649 46.8804 31.5707 46.5025 31.5707C46.1245 31.5707 45.8186 31.2649 45.8186 30.8869V27.6426C41.1267 27.8118 36.8742 29.6926 33.6561 32.6874L35.9446 34.9765C36.2117 35.2436 36.2117 35.6763 35.9446 35.9434C35.811 36.077 35.6361 36.1438 35.4611 36.1438C35.2861 36.1438 35.1112 36.077 34.9776 35.9434L32.6891 33.6545C29.6943 36.8727 27.8135 41.1256 27.6445 45.8175H30.888C31.266 45.8175 31.5718 46.1233 31.5718 46.5013C31.5718 46.8793 31.266 47.1851 30.888 47.1851H27.6445C27.8135 51.8768 29.6943 56.1293 32.6887 59.3471L34.9776 57.0578C35.2447 56.7907 35.6774 56.7907 35.9446 57.0578C36.2117 57.3249 36.2117 57.7577 35.9446 58.0248L33.6557 60.3141C36.8738 63.3088 41.1267 65.1895 45.8186 65.3586V62.1144C45.8186 61.7364 46.1245 61.4305 46.5024 61.4305C46.8804 61.4305 47.1863 61.7364 47.1863 62.1144V65.3586C51.8782 65.1895 56.131 63.3088 59.3488 60.3141L57.0596 58.0248C56.7925 57.7577 56.7925 57.3249 57.0596 57.0578C57.3267 56.7907 57.7595 56.7907 58.0266 57.0578L60.3158 59.3472C63.3105 56.1294 65.1914 51.8768 65.3603 47.1851H62.1169C61.7389 47.1851 61.433 46.8793 61.433 46.5013C61.433 46.1233 61.7389 45.8175 62.1169 45.8175ZM46.5025 49.1575C45.9866 49.1575 45.5091 49.004 45.1015 48.7493L39.6382 54.2117C39.3711 54.4788 38.9384 54.4788 38.6712 54.2117C38.4041 53.9446 38.4041 53.5118 38.6712 53.2447L44.1699 47.7471C43.9695 47.3738 43.8457 46.9537 43.8457 46.5007C43.8457 45.315 44.6273 44.3232 45.6991 43.9811V36.1865C45.6991 35.8085 46.005 35.5027 46.383 35.5027C46.7609 35.5027 47.0668 35.8085 47.0668 36.1865V43.9068C48.2628 44.1658 49.1593 45.227 49.1593 46.5007C49.1593 47.9673 47.9703 49.1575 46.5025 49.1575Z" fill="#D2D2D2"/>
<path d="M46.5022 20.8251C32.3303 20.8251 20.8281 32.3151 20.8281 46.499C20.8281 60.6712 32.3303 72.173 46.5022 72.173C60.6862 72.173 72.176 60.6712 72.176 46.499C72.176 32.3151 60.6862 20.8251 46.5022 20.8251ZM46.5022 66.7592C35.2843 66.7592 26.242 57.6195 26.242 46.4996C26.242 35.286 35.3774 26.2386 46.5022 26.2386C57.7199 26.2386 66.7625 35.3777 66.7625 46.4996C66.7625 57.7177 57.622 66.7592 46.5022 66.7592Z" fill="#D2D2D2"/>
<path d="M86.6396 34.4103C88.9114 32.1785 90.2677 28.543 90.2677 24.6858V16.2836C90.2677 14.2869 88.6423 12.6615 86.6449 12.6615C85.6272 12.6615 84.7063 13.0835 84.0478 13.7607C83.3887 13.0835 82.4678 12.6615 81.4501 12.6615C80.4324 12.6615 79.5115 13.0835 78.853 13.7607C78.1946 13.0835 77.2737 12.6615 76.256 12.6615C74.2579 12.6615 72.6325 14.2869 72.6325 16.2836V20.5652C65.9499 13.8279 56.7069 9.64813 46.5013 9.64813C36.0753 9.64813 26.6504 14.0197 19.9481 21.0108C18.8045 16.1737 15.4711 12.6615 11.5438 12.6615C6.68829 12.6615 2.73828 18.0559 2.73828 24.6858C2.73828 28.523 4.09057 32.1544 6.35641 34.4009C7.38214 35.4186 7.97113 36.8931 7.97113 38.4464V50.536C6.95541 50.7227 6.18277 51.6104 6.18277 52.6798V77.9773C6.18277 80.937 8.59017 83.345 11.5499 83.345C14.5095 83.345 16.9169 80.937 16.9169 77.9773V68.4178C23.6353 77.4688 34.3975 83.3506 46.5013 83.3506C58.6098 83.3506 69.3577 77.4755 76.077 68.4361V77.9773C76.077 80.937 78.4844 83.345 81.4441 83.345C84.4038 83.345 86.8118 80.937 86.8118 77.9773V52.6798C86.8118 51.6064 86.0325 50.7172 85.0115 50.5349V38.4691C85.0115 36.9065 85.6051 35.4267 86.6396 34.4103ZM74.684 16.2836C74.684 15.4181 75.3892 14.7129 76.256 14.7129C77.1221 14.7129 77.8273 15.4181 77.8273 16.2836V24.6858C77.8273 25.2521 78.2868 25.7115 78.853 25.7115C79.4193 25.7115 79.8788 25.2521 79.8788 24.6858V16.2836C79.8788 15.4181 80.584 14.7129 81.4501 14.7129C82.3169 14.7129 83.0221 15.4181 83.0221 16.2836V24.6858C83.0221 25.2521 83.4815 25.7115 84.0478 25.7115C84.6141 25.7115 85.0736 25.2521 85.0736 24.6858V16.2836C85.0736 15.4181 85.7788 14.7129 86.6449 14.7129C87.511 14.7129 88.2162 15.4181 88.2162 16.2836V24.6858C88.2162 28.0048 87.0897 31.0926 85.2025 32.9465C83.7774 34.3462 82.96 36.3589 82.96 38.4691V50.4962H79.9168V38.4464C79.9168 36.3509 79.1068 34.3448 77.6951 32.9451C75.8092 31.0753 74.684 27.9874 74.684 24.6858V16.2836ZM7.80085 32.9451C5.91498 31.0753 4.78975 27.9874 4.78975 24.6858C4.78975 19.1872 7.81954 14.7129 11.5438 14.7129C15.2815 14.7129 18.322 19.1872 18.322 24.6858C18.322 28.0048 17.1954 31.0926 15.3082 32.9465C13.8831 34.3462 13.0658 36.3589 13.0658 38.4691V50.4962H10.0226V38.4464C10.0226 36.3509 9.21257 34.3448 7.80085 32.9451ZM46.5013 81.2992C34.0065 81.2992 23.056 74.6551 16.9169 64.7363V52.6798C16.9169 51.6065 16.1383 50.7172 15.1172 50.5349V38.4691C15.1172 36.9065 15.7109 35.4267 16.7453 34.4103C19.0172 32.1785 20.3734 28.543 20.3734 24.6858C20.3734 24.325 20.3567 23.9696 20.3337 23.6167C26.7092 16.3253 36.0773 11.6996 46.5013 11.6996C56.9032 11.6996 66.2477 16.3036 72.6325 23.573V24.6858C72.6325 28.523 73.9848 32.1545 76.2507 34.4009C77.2764 35.4187 77.8654 36.8932 77.8654 38.4464V50.5361C76.85 50.7231 76.077 51.6106 76.077 52.6798V64.7913C69.936 74.6879 58.9771 81.2992 46.5013 81.2992Z" fill="#D2D2D2"/>
</svg>
