<svg width="166" height="166" viewBox="0 0 166 166" fill="none" xmlns="http://www.w3.org/2000/svg">
<path d="M83 36.3125C73.7661 36.3125 64.7396 39.0507 57.0618 44.1808C49.3841 49.3108 43.4001 56.6024 39.8664 65.1335C36.3327 73.6645 35.4082 83.0518 37.2096 92.1083C39.0111 101.165 43.4576 109.484 49.987 116.013C56.5163 122.542 64.8353 126.989 73.8917 128.79C82.9482 130.592 92.3355 129.667 100.867 126.134C109.398 122.6 116.689 116.616 121.819 108.938C126.949 101.26 129.688 92.2339 129.688 83C129.688 70.6177 124.769 58.7426 116.013 49.987C107.257 41.2313 95.3823 36.3125 83 36.3125ZM83 124.5C74.7921 124.5 66.7685 122.066 59.9439 117.506C53.1192 112.946 47.8001 106.464 44.659 98.8814C41.518 91.2982 40.6961 82.954 42.2974 74.9038C43.8987 66.8535 47.8512 59.4589 53.6551 53.6551C59.459 47.8512 66.8536 43.8987 74.9038 42.2974C82.954 40.6961 91.2983 41.518 98.8814 44.659C106.465 47.8 112.946 53.1192 117.506 59.9438C122.066 66.7685 124.5 74.7921 124.5 83C124.5 94.0065 120.128 104.562 112.345 112.345C104.562 120.128 94.0065 124.5 83 124.5Z" fill="#D2D2D2"/>
<path d="M142.656 7.78125C137.841 7.78125 133.223 9.69413 129.818 13.0991C126.413 16.504 124.5 21.1222 124.5 25.9375V41.5C124.506 45.7534 126.004 49.8697 128.735 53.131C131.465 56.3923 135.254 58.5915 139.44 59.345L133.267 147.844C133.267 150.465 134.308 152.978 136.161 154.832C138.015 156.685 140.528 157.726 143.149 157.726C145.77 157.726 148.284 156.685 150.137 154.832C151.99 152.978 153.031 150.465 153.031 147.844L146.806 59.1634C150.79 58.2282 154.34 55.9748 156.883 52.7687C159.425 49.5626 160.81 45.5917 160.812 41.5V25.9375C160.813 21.1222 158.9 16.504 155.495 13.0991C152.09 9.69413 147.472 7.78125 142.656 7.78125ZM155.625 41.5C155.618 42.3707 155.531 43.239 155.366 44.0938H129.947C129.781 43.239 129.694 42.3707 129.688 41.5V25.9375C129.688 22.498 131.054 19.1993 133.486 16.7672C135.918 14.3351 139.217 12.9688 142.656 12.9688C146.096 12.9688 149.394 14.3351 151.827 16.7672C154.259 19.1993 155.625 22.498 155.625 25.9375V41.5Z" fill="#D2D2D2"/>
<path d="M19.6606 59.2672L13.4616 147.844C13.4616 150.465 14.5027 152.978 16.356 154.832C18.2093 156.685 20.7228 157.726 23.3438 157.726C25.9647 157.726 28.4782 156.685 30.3315 154.832C32.1848 152.978 33.2259 150.465 33.2259 147.844L27.0269 59.2672C31.114 58.4205 34.7845 56.1915 37.4206 52.9554C40.0567 49.7194 41.4973 45.6739 41.5 41.5V10.375H36.3125V41.5C36.3058 42.3707 36.219 43.239 36.0531 44.0938H25.9375V10.375H20.75V44.0938H10.6344C10.4685 43.239 10.3817 42.3707 10.375 41.5V10.375H5.1875V41.5C5.19016 45.6739 6.6308 49.7194 9.2669 52.9554C11.903 56.1915 15.5735 58.4205 19.6606 59.2672Z" fill="#D2D2D2"/>
<path d="M83 46.6875C75.8181 46.6875 68.7974 48.8172 62.8259 52.8073C56.8543 56.7973 52.2 62.4686 49.4516 69.1038C46.7032 75.739 45.9841 83.0403 47.3853 90.0842C48.7864 97.1282 52.2448 103.598 57.3232 108.677C62.4016 113.755 68.8719 117.214 75.9158 118.615C82.9597 120.016 90.261 119.297 96.8962 116.548C103.531 113.8 109.203 109.146 113.193 103.174C117.183 97.2026 119.313 90.1819 119.313 83C119.313 73.3693 115.487 64.1331 108.677 57.3232C101.867 50.5133 92.6307 46.6875 83 46.6875ZM106.344 85.5938H83C82.3121 85.5938 81.6524 85.3205 81.166 84.8341C80.6795 84.3476 80.4063 83.6879 80.4063 83V67.4375H85.5938V80.4062H106.344V85.5938Z" fill="#D2D2D2"/>
</svg>
