<svg width="80" height="81" viewBox="0 0 80 81" fill="none" xmlns="http://www.w3.org/2000/svg">
<path d="M73.3074 6.75858C64.3837 -2.25286 49.9128 -2.25286 40.9892 6.75858C34.8877 12.9201 26.8781 29.0103 24.8672 41.0621C26.0383 40.6525 27.2781 40.3813 28.5863 40.3813C34.8991 40.3813 40.0122 45.5447 40.0122 51.9196C40.0122 53.2062 39.7552 54.4177 39.3724 55.5715C51.2896 53.5004 67.2288 45.5332 73.3074 39.389C82.2367 30.3776 82.2367 15.77 73.3074 6.75858Z" fill="#D2D2D2"/>
<path d="M21.6693 50.7267L8.34092 64.1862C7.54111 63.7593 6.67845 63.4593 5.71296 63.4593C2.55941 63.4593 0 66.0439 0 69.2284C0 72.413 2.55941 74.9976 5.71296 74.9976C5.71296 78.1822 8.27237 80.7668 11.4259 80.7668C14.5795 80.7668 17.1389 78.1822 17.1389 74.9976C17.1389 74.0226 16.8418 73.1515 16.419 72.3438L29.7474 58.8843C31.9812 56.6286 31.9812 52.9825 29.7474 50.7267C27.5136 48.471 23.903 48.471 21.6693 50.7267Z" fill="#D2D2D2"/>
</svg>
