<svg width="80" height="81" viewBox="0 0 80 81" fill="none" xmlns="http://www.w3.org/2000/svg">
<path d="M78.0323 16.7949C79.6563 11.4375 80.2835 5.82464 79.8825 0.238226C76.3858 0.220676 72.933 1.02107 69.7964 2.57624L69.2789 0C66.0591 0.209406 62.9415 1.22101 60.2067 2.94379C57.4719 4.66658 55.2058 7.04647 53.6121 9.86933L53.7034 5.57788C49.8932 7.59189 46.9197 10.9046 45.3153 14.9231L44.5644 12.2516C42.9462 14.1887 41.7247 16.4286 40.97 18.8426C40.2154 21.2565 39.9427 23.7967 40.1674 26.3171L38.0197 21.6275C37.2858 23.7129 36.8308 25.8874 36.6667 28.0936C36.2877 27.468 35.8768 26.8625 35.4356 26.2797L34.6847 28.9716C33.0803 24.9531 30.1068 21.6404 26.2966 19.6264L26.3913 23.9246C24.7976 21.1018 22.5314 18.7219 19.7967 16.9991C17.0619 15.2763 13.9443 14.2647 10.7244 14.0553L10.2036 16.6213C7.06618 15.0697 3.61337 14.2728 0.117529 14.2935C-0.283477 19.8799 0.343737 25.4928 1.96765 30.8502L0.469289 30.8808C1.71324 34.2457 3.20913 37.5109 4.94408 40.648L1.70383 40.1376C1.70383 40.1376 6.95994 48.6116 12.8654 50.5174L8.18771 52.0692C11.5073 55.2607 15.4597 57.7103 19.7859 59.2575C24.1121 60.8047 28.7144 61.4145 33.2912 61.0469C33.2912 61.0469 25.1195 35.8631 11.2724 24.8027C23.0152 33.7978 31.8889 46.0504 36.802 60.0532C36.802 60.0532 38.2632 64.0928 39.8461 69.2929C38.155 76.3682 37.5191 81 37.5191 81H42.4742C42.4742 80.8469 42.508 80.7073 42.5181 80.5542C42.5418 80.7039 42.5722 80.8503 42.5925 81L43.1405 74.231C44.2658 64.9641 46.3447 55.8399 49.3436 47.0053C57.7165 47.074 65.7845 43.8474 71.8258 38.014L67.1312 36.4621C73.0536 34.5597 78.2928 26.0823 78.2928 26.0823L75.0525 26.5927C76.7875 23.4556 78.2834 20.1904 79.5273 16.8255L78.0323 16.7949ZM46.8204 46.6649C44.63 52.3378 42.7433 58.1248 41.1686 64.0009L39.3963 58.4639C43.057 43.0158 50.5911 28.7694 61.2798 17.0842C62.078 16.247 62.9709 15.471 63.8436 14.6849C64.0465 14.5079 64.2393 14.3275 64.4456 14.1506C65.4603 13.2748 66.5179 12.4263 67.6182 11.605C68.3116 11.0468 68.7276 10.7542 68.7276 10.7542C55.7937 21.1 47.8148 43.7314 46.8204 46.6649Z" fill="#D2D2D2"/>
</svg>
